<svg width="254" height="50" viewBox="0 0 254 50" fill="none" xmlns="http://www.w3.org/2000/svg">
<path d="M25 45.8334C33.2833 45.8334 41.6666 42.9709 41.6666 37.5V12.5C41.6666 7.02919 33.2833 4.16669 25 4.16669C16.7166 4.16669 8.33331 7.02919 8.33331 12.5V37.5C8.33331 42.9709 16.7166 45.8334 25 45.8334ZM25 41.6667C17.2458 41.6667 12.5 38.9688 12.5 37.5V34.8584C15.7104 36.6042 20.3687 37.5 25 37.5C29.6312 37.5 34.2896 36.6042 37.5 34.8584V37.5C37.5 38.9688 32.7541 41.6667 25 41.6667ZM25 8.33335C32.7541 8.33335 37.5 11.0313 37.5 12.5C37.5 13.9688 32.7541 16.6667 25 16.6667C17.2458 16.6667 12.5 13.9688 12.5 12.5C12.5 11.0313 17.2458 8.33335 25 8.33335ZM12.5 18.1917C15.7104 19.9375 20.3687 20.8334 25 20.8334C29.6312 20.8334 34.2896 19.9375 37.5 18.1917V20.8334C37.5 22.3021 32.7541 25 25 25C17.2458 25 12.5 22.3021 12.5 20.8334V18.1917ZM12.5 26.525C15.7104 28.2709 20.3687 29.1667 25 29.1667C29.6312 29.1667 34.2896 28.2709 37.5 26.525V29.1667C37.5 30.6354 32.7541 33.3334 25 33.3334C17.2458 33.3334 12.5 30.6354 12.5 29.1667V26.525Z" fill="url(#paint0_radial_11_4)"/>
<line y1="49" x2="254" y2="49" stroke="url(#paint1_linear_11_4)" stroke-width="2"/>
<path d="M60.8691 41.0176V25.6094C60.8691 25.2266 60.8008 24.9395 60.6641 24.748C60.5273 24.5475 60.3542 24.4062 60.1445 24.3242C59.944 24.2331 59.7253 24.1829 59.4883 24.1738C59.2513 24.1647 59.028 24.1556 58.8184 24.1465C58.6178 24.1283 58.4492 24.0918 58.3125 24.0371C58.1758 23.9824 58.1074 23.8685 58.1074 23.6953C58.1074 23.5768 58.1621 23.5039 58.2715 23.4766C58.39 23.4401 58.4993 23.4219 58.5996 23.4219H59.3652C59.5931 23.4219 59.7982 23.431 59.9805 23.4492C60.1719 23.4583 60.3496 23.472 60.5137 23.4902C60.6868 23.5085 60.86 23.5267 61.0332 23.5449C61.2155 23.554 61.416 23.5586 61.6348 23.5586C62.0814 23.5586 62.4733 23.5495 62.8105 23.5312C63.1478 23.5039 63.4714 23.4766 63.7812 23.4492C64.0911 23.4219 64.401 23.3991 64.7109 23.3809C65.0208 23.3535 65.3672 23.3398 65.75 23.3398H66.666C66.7936 23.3398 66.8984 23.3672 66.9805 23.4219C67.0625 23.4674 67.1263 23.4948 67.1719 23.5039C67.2083 23.6042 67.2311 23.6589 67.2402 23.668C67.2493 23.6771 67.2539 23.7181 67.2539 23.791C67.2539 23.8913 67.1719 23.9733 67.0078 24.0371C66.8529 24.1009 66.6706 24.1556 66.4609 24.2012C66.2604 24.2376 66.0553 24.2695 65.8457 24.2969C65.6361 24.3151 65.4857 24.3379 65.3945 24.3652C65.2487 24.3926 65.0938 24.4199 64.9297 24.4473C64.7656 24.4655 64.6152 24.502 64.4785 24.5566C64.3418 24.6022 64.2279 24.6751 64.1367 24.7754C64.0456 24.8665 64 24.9987 64 25.1719V41.4141C64 41.6055 64.0684 41.7559 64.2051 41.8652C64.3509 41.9655 64.5286 42.043 64.7383 42.0977C64.9479 42.1432 65.1758 42.1751 65.4219 42.1934C65.6771 42.2116 65.9095 42.2344 66.1191 42.2617C66.3288 42.2891 66.502 42.3346 66.6387 42.3984C66.7845 42.4531 66.8574 42.5443 66.8574 42.6719C66.8574 42.7721 66.8301 42.8359 66.7754 42.8633C66.7207 42.8906 66.6706 42.9134 66.625 42.9316C66.4974 42.9681 66.3424 43 66.1602 43.0273C65.9779 43.0547 65.8184 43.0684 65.6816 43.0684C65.3535 43.0684 65.0527 43.0592 64.7793 43.041C64.5059 43.0228 64.2415 43.0046 63.9863 42.9863C63.7311 42.9681 63.4759 42.9499 63.2207 42.9316C62.9655 42.9134 62.6875 42.9043 62.3867 42.9043C62.2409 42.9043 62.0358 42.9089 61.7715 42.918C61.5163 42.9271 61.2383 42.9408 60.9375 42.959C60.6458 42.9681 60.3542 42.9772 60.0625 42.9863C59.7708 42.9954 59.5202 43 59.3105 43H58.2305C58.1849 43 58.1211 42.9772 58.0391 42.9316C57.957 42.8861 57.916 42.8132 57.916 42.7129C57.916 42.5306 57.9935 42.4212 58.1484 42.3848C58.349 42.3301 58.5267 42.2891 58.6816 42.2617C58.8457 42.2253 59.0143 42.1934 59.1875 42.166C59.3607 42.1296 59.5521 42.0931 59.7617 42.0566C59.9714 42.0202 60.2311 41.9701 60.541 41.9062C60.696 41.8607 60.7871 41.7604 60.8145 41.6055C60.8509 41.4505 60.8691 41.2546 60.8691 41.0176ZM73.2148 40.1562C73.2148 40.3477 73.2604 40.5163 73.3516 40.6621C73.4427 40.8079 73.5521 40.9355 73.6797 41.0449C73.8073 41.1452 73.9395 41.2318 74.0762 41.3047C74.2129 41.3776 74.3223 41.4368 74.4043 41.4824C74.4863 41.528 74.5957 41.5736 74.7324 41.6191C74.8783 41.6647 75.0332 41.7057 75.1973 41.7422C75.3613 41.7786 75.5254 41.8105 75.6895 41.8379C75.8535 41.8561 75.9993 41.8652 76.127 41.8652C76.1999 41.8652 76.2773 41.8698 76.3594 41.8789C76.4414 41.888 76.5189 41.9108 76.5918 41.9473C76.6647 41.9837 76.724 42.0339 76.7695 42.0977C76.8242 42.1523 76.8516 42.2253 76.8516 42.3164C76.8516 42.5534 76.7832 42.7174 76.6465 42.8086C76.5098 42.8906 76.3594 42.9316 76.1953 42.9316C75.0195 42.9499 73.8483 42.9681 72.6816 42.9863C71.515 42.9954 70.3346 43 69.1406 43C68.9583 43 68.8125 42.9818 68.7031 42.9453C68.5938 42.9089 68.5391 42.7858 68.5391 42.5762C68.5391 42.4303 68.5892 42.321 68.6895 42.248C68.7988 42.1751 68.9355 42.1113 69.0996 42.0566C69.3457 41.9746 69.6328 41.8926 69.9609 41.8105C70.2891 41.7194 70.6035 41.5918 70.9043 41.4277C71.2051 41.2546 71.4603 41.0221 71.6699 40.7305C71.8796 40.4297 71.9935 40.0286 72.0117 39.5273C72.0938 37.3763 72.1849 35.2435 72.2852 33.1289C72.3854 31.0143 72.4355 28.8587 72.4355 26.6621C72.4355 26.5072 72.4173 26.375 72.3809 26.2656C72.3444 26.1471 72.2897 26.0378 72.2168 25.9375C72.153 25.8372 72.0755 25.7415 71.9844 25.6504C71.8932 25.5592 71.793 25.459 71.6836 25.3496C71.638 25.304 71.5605 25.2402 71.4512 25.1582C71.3418 25.0671 71.2188 24.9714 71.082 24.8711C70.9453 24.7708 70.7995 24.666 70.6445 24.5566C70.4896 24.4473 70.3392 24.3424 70.1934 24.2422C70.0566 24.1602 69.9336 24.0964 69.8242 24.0508C69.724 24.0052 69.6283 23.9688 69.5371 23.9414C69.446 23.9049 69.3548 23.873 69.2637 23.8457C69.1725 23.8092 69.0723 23.7682 68.9629 23.7227C68.8809 23.6953 68.8398 23.6497 68.8398 23.5859C68.8398 23.5677 68.8444 23.5449 68.8535 23.5176C68.8626 23.4811 68.8991 23.4629 68.9629 23.4629C69.3275 23.4355 69.7604 23.4219 70.2617 23.4219H70.8496C71.3053 23.4219 71.7747 23.431 72.2578 23.4492C72.75 23.4583 73.2969 23.4629 73.8984 23.4629C74.026 23.4629 74.1309 23.5176 74.2129 23.627L83.7832 36.8066C83.9017 36.9616 84.0293 37.0391 84.166 37.0391C84.321 37.0391 84.3984 36.9616 84.3984 36.8066V25.8965C84.3984 25.6139 84.3483 25.3861 84.248 25.2129C84.1478 25.0306 83.9746 24.8802 83.7285 24.7617C83.4824 24.6432 83.1497 24.543 82.7305 24.4609C82.3203 24.3698 81.8053 24.2741 81.1855 24.1738C80.9212 24.1374 80.7526 24.0964 80.6797 24.0508C80.6068 23.9961 80.5703 23.8958 80.5703 23.75C80.5703 23.6862 80.5931 23.6361 80.6387 23.5996C80.6842 23.5632 80.7389 23.5404 80.8027 23.5312C80.8665 23.513 80.9349 23.5039 81.0078 23.5039C81.0807 23.4948 81.14 23.4902 81.1855 23.4902H82.0879C82.4434 23.4902 82.8626 23.513 83.3457 23.5586C83.8379 23.6042 84.4121 23.627 85.0684 23.627C85.3145 23.627 85.6243 23.6178 85.998 23.5996C86.3717 23.5723 86.7318 23.5586 87.0781 23.5586C87.2148 23.5586 87.3333 23.5632 87.4336 23.5723C87.5339 23.5723 87.6296 23.5768 87.7207 23.5859C87.8118 23.5951 87.903 23.6087 87.9941 23.627C88.0944 23.6452 88.2083 23.668 88.3359 23.6953C88.5365 23.75 88.6367 23.8457 88.6367 23.9824C88.6367 24.1191 88.5501 24.2057 88.377 24.2422C87.8848 24.2786 87.4609 24.3516 87.1055 24.4609C86.75 24.5612 86.4538 24.7207 86.2168 24.9395C85.9889 25.1491 85.8158 25.4271 85.6973 25.7734C85.5788 26.1107 85.5104 26.5391 85.4922 27.0586L85.4375 28.166C85.3646 29.4421 85.3053 30.5677 85.2598 31.543C85.2233 32.5091 85.1914 33.3978 85.1641 34.209C85.1367 35.0111 85.1185 35.7676 85.1094 36.4785C85.1003 37.1803 85.0957 37.9095 85.0957 38.666V39.4727C85.0957 39.7096 85.0957 39.9694 85.0957 40.252C85.1048 40.5254 85.1094 40.8353 85.1094 41.1816V42.3164C85.1094 42.3984 85.082 42.5124 85.0273 42.6582C84.9818 42.7949 84.8997 42.8633 84.7812 42.8633C84.6354 42.8633 84.5033 42.8177 84.3848 42.7266C84.2754 42.6263 84.1387 42.4577 83.9746 42.2207L73.7891 27.7695C73.6979 27.6693 73.6341 27.5918 73.5977 27.5371C73.5703 27.4824 73.5065 27.4551 73.4062 27.4551C73.3242 27.4551 73.2695 27.5052 73.2422 27.6055C73.224 27.7057 73.2148 27.806 73.2148 27.9062V40.1562ZM89.0195 24.0508C89.0195 23.9323 89.0742 23.8594 89.1836 23.832C89.2839 23.8047 89.3704 23.791 89.4434 23.791C89.6165 23.791 89.8444 23.7956 90.127 23.8047C90.4186 23.8138 90.724 23.8229 91.043 23.832C91.362 23.832 91.681 23.8366 92 23.8457C92.319 23.8548 92.6016 23.8594 92.8477 23.8594C93.194 23.8594 93.5267 23.8548 93.8457 23.8457C94.1738 23.8366 94.5339 23.8184 94.9258 23.791C95.3359 23.7728 95.7233 23.7409 96.0879 23.6953C96.4616 23.6497 96.8307 23.627 97.1953 23.627C97.2318 23.627 97.2865 23.6315 97.3594 23.6406C97.4323 23.6406 97.5052 23.6497 97.5781 23.668C97.651 23.6771 97.7103 23.6999 97.7559 23.7363C97.8105 23.7728 97.8379 23.8229 97.8379 23.8867C97.8379 24.0143 97.765 24.11 97.6191 24.1738C97.4733 24.2285 97.291 24.2741 97.0723 24.3105C96.8535 24.347 96.6165 24.388 96.3613 24.4336C96.1061 24.4701 95.8691 24.5339 95.6504 24.625C95.4316 24.707 95.2493 24.8301 95.1035 24.9941C94.9577 25.1582 94.8848 25.3815 94.8848 25.6641C94.8848 25.8737 94.8893 26.1016 94.8984 26.3477C94.9167 26.5846 94.9668 26.7988 95.0488 26.9902L99.1094 37.2988C99.237 37.5996 99.3327 37.75 99.3965 37.75C99.4967 37.75 99.6152 37.6178 99.752 37.3535C99.7793 37.2897 99.8431 37.1165 99.9434 36.834C100.053 36.5423 100.185 36.1823 100.34 35.7539C100.504 35.3164 100.682 34.8288 100.873 34.291C101.074 33.7441 101.274 33.1836 101.475 32.6094C101.684 32.0352 101.889 31.4609 102.09 30.8867C102.29 30.3125 102.473 29.7793 102.637 29.2871C102.81 28.7858 102.96 28.3483 103.088 27.9746C103.215 27.5918 103.302 27.3092 103.348 27.127C103.393 26.8991 103.416 26.6803 103.416 26.4707C103.416 26.3066 103.402 26.1562 103.375 26.0195C103.357 25.8737 103.316 25.7461 103.252 25.6367C103.133 25.4271 102.956 25.2448 102.719 25.0898C102.491 24.9258 102.277 24.7936 102.076 24.6934C101.921 24.6204 101.739 24.5612 101.529 24.5156C101.329 24.4609 101.137 24.4017 100.955 24.3379C100.773 24.2741 100.618 24.2012 100.49 24.1191C100.363 24.0371 100.299 23.9277 100.299 23.791C100.299 23.6725 100.34 23.6042 100.422 23.5859C100.504 23.5677 100.581 23.5586 100.654 23.5586C100.964 23.5586 101.311 23.5723 101.693 23.5996C102.076 23.6178 102.477 23.6406 102.896 23.668C103.316 23.6953 103.744 23.7227 104.182 23.75C104.619 23.7682 105.043 23.7773 105.453 23.7773C105.681 23.7773 105.886 23.7682 106.068 23.75C106.26 23.7227 106.438 23.6953 106.602 23.668C106.766 23.6406 106.925 23.6178 107.08 23.5996C107.235 23.5723 107.404 23.5586 107.586 23.5586C107.641 23.5586 107.7 23.5632 107.764 23.5723C107.827 23.5723 107.891 23.5814 107.955 23.5996C108.019 23.6178 108.069 23.6452 108.105 23.6816C108.151 23.7181 108.174 23.7728 108.174 23.8457C108.174 23.9915 108.119 24.0781 108.01 24.1055C107.837 24.151 107.663 24.2012 107.49 24.2559C107.317 24.3105 107.153 24.3652 106.998 24.4199C106.852 24.4746 106.725 24.5293 106.615 24.584C106.506 24.6296 106.433 24.666 106.396 24.6934C106.296 24.7389 106.155 24.8346 105.973 24.9805C105.799 25.1263 105.635 25.3086 105.48 25.5273C105.389 25.6549 105.294 25.8099 105.193 25.9922C105.102 26.1745 104.984 26.4251 104.838 26.7441C104.692 27.054 104.514 27.4551 104.305 27.9473C104.104 28.4395 103.849 29.0592 103.539 29.8066L98.5215 42.125C98.4577 42.2708 98.3984 42.3939 98.3438 42.4941C98.2891 42.5944 98.2207 42.6445 98.1387 42.6445C98.0384 42.6445 97.9564 42.5898 97.8926 42.4805C97.8288 42.3711 97.7604 42.2207 97.6875 42.0293L92.1777 27.3867C92.0866 27.1497 91.9863 26.8991 91.877 26.6348C91.7676 26.3613 91.64 26.1016 91.4941 25.8555C91.3574 25.6094 91.2025 25.3906 91.0293 25.1992C90.8561 24.9987 90.6647 24.8529 90.4551 24.7617C90.3822 24.7526 90.2637 24.7298 90.0996 24.6934C89.9447 24.6569 89.7852 24.6068 89.6211 24.543C89.4661 24.4792 89.3249 24.4062 89.1973 24.3242C89.0788 24.2422 89.0195 24.151 89.0195 24.0508ZM111.414 24.9258C111.414 24.6523 111.314 24.4336 111.113 24.2695C110.913 24.1055 110.667 23.9779 110.375 23.8867C110.083 23.7865 109.773 23.7181 109.445 23.6816C109.117 23.6452 108.826 23.6178 108.57 23.5996C108.507 23.5996 108.447 23.5951 108.393 23.5859C108.338 23.5677 108.311 23.5176 108.311 23.4355C108.311 23.3809 108.333 23.3353 108.379 23.2988C108.424 23.2624 108.479 23.235 108.543 23.2168C108.607 23.1895 108.671 23.1758 108.734 23.1758C108.798 23.1667 108.853 23.1621 108.898 23.1621C108.962 23.1621 109.099 23.1667 109.309 23.1758C109.518 23.1758 109.778 23.1803 110.088 23.1895C110.398 23.1895 110.74 23.194 111.113 23.2031C111.496 23.2031 111.893 23.2031 112.303 23.2031C113.005 23.2031 113.606 23.194 114.107 23.1758C114.618 23.1484 115.078 23.1211 115.488 23.0938C115.908 23.0573 116.304 23.0299 116.678 23.0117C117.061 22.9844 117.471 22.9707 117.908 22.9707C118.081 22.9707 118.232 22.9707 118.359 22.9707C118.496 22.9707 118.633 22.9707 118.77 22.9707C118.906 22.9707 119.057 22.9753 119.221 22.9844C119.394 22.9844 119.599 22.9889 119.836 22.998C120.082 23.0072 120.378 23.0163 120.725 23.0254C121.08 23.0345 121.508 23.0482 122.01 23.0664C122.11 23.0755 122.197 23.112 122.27 23.1758C122.342 23.2396 122.388 23.3216 122.406 23.4219C122.424 24.0508 122.438 24.6523 122.447 25.2266C122.465 25.7917 122.475 26.3932 122.475 27.0312C122.475 27.1771 122.452 27.25 122.406 27.25C122.388 27.25 122.361 27.2454 122.324 27.2363C122.288 27.2272 122.26 27.1999 122.242 27.1543C122.169 27.0085 122.092 26.849 122.01 26.6758C121.928 26.5026 121.841 26.3294 121.75 26.1562C121.668 25.974 121.581 25.8008 121.49 25.6367C121.408 25.4727 121.326 25.3314 121.244 25.2129C121.126 25.0397 120.971 24.862 120.779 24.6797C120.588 24.4883 120.374 24.3151 120.137 24.1602C119.9 24.0052 119.645 23.8776 119.371 23.7773C119.107 23.6771 118.842 23.6178 118.578 23.5996C118.414 23.5996 118.268 23.5996 118.141 23.5996C118.022 23.5905 117.904 23.5859 117.785 23.5859C117.667 23.5859 117.544 23.5859 117.416 23.5859C117.288 23.5859 117.138 23.5859 116.965 23.5859C116.609 23.5859 116.24 23.5951 115.857 23.6133C115.484 23.6315 115.119 23.6771 114.764 23.75C114.682 23.7682 114.6 23.7956 114.518 23.832C114.436 23.8594 114.395 23.9323 114.395 24.0508V32.5957C114.413 32.7142 114.477 32.7917 114.586 32.8281C115.105 32.7826 115.657 32.7461 116.24 32.7188C116.833 32.6823 117.389 32.6641 117.908 32.6641C118.163 32.6458 118.391 32.5638 118.592 32.418C118.801 32.263 118.984 32.0807 119.139 31.8711C119.294 31.6523 119.43 31.4154 119.549 31.1602C119.667 30.8958 119.772 30.6406 119.863 30.3945C119.954 30.1484 120.032 29.9297 120.096 29.7383C120.169 29.5378 120.237 29.3874 120.301 29.2871C120.328 29.2415 120.355 29.2142 120.383 29.2051C120.41 29.196 120.488 29.1914 120.615 29.1914C120.67 29.1914 120.725 29.2051 120.779 29.2324C120.843 29.2507 120.875 29.2826 120.875 29.3281C120.875 29.6562 120.861 29.9479 120.834 30.2031C120.816 30.4583 120.793 30.6862 120.766 30.8867C120.738 31.0872 120.711 31.2741 120.684 31.4473C120.665 31.6113 120.656 31.7708 120.656 31.9258V37.0391C120.638 37.0664 120.615 37.0892 120.588 37.1074C120.542 37.153 120.497 37.1758 120.451 37.1758C120.378 37.1758 120.305 37.112 120.232 36.9844C120.169 36.8477 120.1 36.679 120.027 36.4785C119.964 36.278 119.895 36.0547 119.822 35.8086C119.758 35.5625 119.686 35.321 119.604 35.084C119.531 34.847 119.449 34.6328 119.357 34.4414C119.275 34.25 119.18 34.1087 119.07 34.0176C118.97 33.9355 118.824 33.8626 118.633 33.7988C118.441 33.735 118.223 33.6849 117.977 33.6484C117.74 33.612 117.484 33.5846 117.211 33.5664C116.938 33.5391 116.673 33.5208 116.418 33.5117C116.172 33.5026 115.939 33.498 115.721 33.498C115.502 33.498 115.329 33.498 115.201 33.498C115.001 33.498 114.841 33.5117 114.723 33.5391C114.613 33.5573 114.527 33.6029 114.463 33.6758C114.408 33.7487 114.372 33.8535 114.354 33.9902C114.335 34.127 114.326 34.3138 114.326 34.5508V40.0605C114.326 40.3249 114.34 40.5573 114.367 40.7578C114.395 40.9583 114.44 41.1361 114.504 41.291C114.577 41.4368 114.668 41.569 114.777 41.6875C114.896 41.7969 115.037 41.9017 115.201 42.002C115.329 42.0749 115.47 42.1478 115.625 42.2207C115.789 42.2845 115.939 42.3164 116.076 42.3164H118.223C118.432 42.3164 118.619 42.3164 118.783 42.3164C118.956 42.3073 119.13 42.2982 119.303 42.2891C119.476 42.2708 119.658 42.248 119.85 42.2207C120.041 42.1842 120.264 42.1387 120.52 42.084C120.793 42.0202 121.048 41.9108 121.285 41.7559C121.522 41.6009 121.745 41.4141 121.955 41.1953C122.174 40.9766 122.379 40.7305 122.57 40.457C122.762 40.1836 122.944 39.8965 123.117 39.5957C123.145 39.5501 123.195 39.4544 123.268 39.3086C123.34 39.1536 123.418 39.0352 123.5 38.9531C123.509 38.9349 123.532 38.9258 123.568 38.9258C123.605 38.9258 123.637 38.9577 123.664 39.0215C123.728 39.14 123.76 39.377 123.76 39.7324C123.76 39.8418 123.728 40.0104 123.664 40.2383C123.6 40.457 123.546 40.6667 123.5 40.8672C123.454 41.0312 123.418 41.2363 123.391 41.4824C123.363 41.7285 123.327 41.9701 123.281 42.207C123.236 42.4349 123.167 42.6309 123.076 42.7949C122.994 42.959 122.88 43.041 122.734 43.041C122.68 43.041 122.634 43.0365 122.598 43.0273C122.561 43.0273 122.529 43.0273 122.502 43.0273C122.475 43.0091 122.397 43 122.27 43H112.193C111.984 43 111.729 43.0046 111.428 43.0137C111.136 43.0319 110.84 43.0456 110.539 43.0547C110.238 43.0729 109.951 43.0866 109.678 43.0957C109.413 43.1139 109.204 43.123 109.049 43.123H108.666C108.566 43.123 108.465 43.1003 108.365 43.0547C108.265 43.0182 108.215 42.9544 108.215 42.8633C108.215 42.7812 108.224 42.6992 108.242 42.6172C108.27 42.5352 108.324 42.4714 108.406 42.4258C108.424 42.4167 108.465 42.4076 108.529 42.3984C108.602 42.3893 108.68 42.3802 108.762 42.3711C108.844 42.362 108.921 42.3574 108.994 42.3574C109.067 42.3483 109.122 42.3438 109.158 42.3438C109.377 42.3255 109.559 42.3118 109.705 42.3027C109.851 42.2845 110.024 42.2389 110.225 42.166C110.617 42.0475 110.913 41.8926 111.113 41.7012C111.314 41.5007 111.414 41.1862 111.414 40.7578V24.9258ZM126.152 28.3574C126.152 27.9017 126.225 27.4414 126.371 26.9766C126.526 26.5117 126.731 26.0742 126.986 25.6641C127.242 25.2448 127.538 24.8665 127.875 24.5293C128.221 24.1829 128.586 23.9049 128.969 23.6953C129.333 23.4857 129.702 23.3581 130.076 23.3125C130.459 23.2669 130.869 23.2441 131.307 23.2441C131.799 23.2441 132.282 23.3034 132.756 23.4219C133.23 23.5312 133.69 23.7044 134.137 23.9414C134.173 23.9688 134.242 24.0143 134.342 24.0781C134.442 24.1419 134.551 24.2194 134.67 24.3105C134.798 24.4017 134.925 24.4974 135.053 24.5977C135.18 24.6888 135.294 24.7754 135.395 24.8574C135.431 24.8939 135.463 24.9121 135.49 24.9121C135.499 24.9121 135.522 24.8939 135.559 24.8574C135.586 24.821 135.618 24.7663 135.654 24.6934C135.7 24.6113 135.745 24.5293 135.791 24.4473C135.837 24.3561 135.878 24.2741 135.914 24.2012C135.96 24.1191 135.992 24.0645 136.01 24.0371C136.028 23.9915 136.051 23.9505 136.078 23.9141C136.115 23.8776 136.137 23.8594 136.146 23.8594C136.146 23.8503 136.165 23.8457 136.201 23.8457C136.256 23.8457 136.297 23.8685 136.324 23.9141C136.352 23.9505 136.37 23.9961 136.379 24.0508C136.397 24.1055 136.406 24.1647 136.406 24.2285C136.406 24.2832 136.406 24.3288 136.406 24.3652V24.4609C136.406 24.4792 136.402 24.5156 136.393 24.5703C136.393 24.625 136.388 24.6888 136.379 24.7617C136.37 24.8255 136.361 24.8848 136.352 24.9395C136.352 24.9941 136.347 25.0306 136.338 25.0488V28.4258C136.338 28.4987 136.306 28.5488 136.242 28.5762C136.178 28.6035 136.124 28.6172 136.078 28.6172C135.978 28.6172 135.919 28.599 135.9 28.5625C135.882 28.5169 135.855 28.4395 135.818 28.3301C135.718 28.0931 135.65 27.8516 135.613 27.6055C135.586 27.3503 135.522 27.0905 135.422 26.8262C135.322 26.5254 135.153 26.2018 134.916 25.8555C134.679 25.5 134.406 25.1719 134.096 24.8711C133.786 24.5703 133.462 24.3197 133.125 24.1191C132.788 23.9186 132.464 23.8184 132.154 23.8184C131.58 23.8184 131.138 23.8594 130.828 23.9414C130.363 24.0781 129.971 24.3014 129.652 24.6113C129.342 24.9121 129.055 25.2539 128.791 25.6367C128.718 25.7461 128.65 25.8874 128.586 26.0605C128.522 26.2246 128.467 26.4023 128.422 26.5938C128.385 26.776 128.354 26.9538 128.326 27.127C128.308 27.3001 128.299 27.4414 128.299 27.5508C128.299 27.9883 128.39 28.3848 128.572 28.7402C128.764 29.0957 129.01 29.4147 129.311 29.6973C129.611 29.9707 129.949 30.2168 130.322 30.4355C130.705 30.6452 131.088 30.8275 131.471 30.9824C131.799 31.1191 132.136 31.2513 132.482 31.3789C132.838 31.5065 133.184 31.6387 133.521 31.7754C133.868 31.9121 134.196 32.0625 134.506 32.2266C134.825 32.3906 135.107 32.5775 135.354 32.7871C135.663 33.0332 135.969 33.3385 136.27 33.7031C136.57 34.0586 136.839 34.4505 137.076 34.8789C137.322 35.2982 137.518 35.7357 137.664 36.1914C137.81 36.6471 137.883 37.0938 137.883 37.5312C137.883 38.3789 137.732 39.1445 137.432 39.8281C137.14 40.5117 136.73 41.0951 136.201 41.5781C135.682 42.0521 135.066 42.4212 134.355 42.6855C133.645 42.9408 132.879 43.0684 132.059 43.0684C131.576 43.0684 131.106 43.0456 130.65 43C130.204 42.9453 129.775 42.8542 129.365 42.7266C128.955 42.599 128.568 42.4212 128.203 42.1934C127.839 41.9655 127.492 41.6738 127.164 41.3184C127.128 41.2728 127.077 41.2454 127.014 41.2363C126.959 41.2272 126.913 41.2227 126.877 41.2227C126.722 41.2227 126.613 41.2637 126.549 41.3457C126.485 41.4277 126.43 41.5234 126.385 41.6328C126.348 41.7331 126.303 41.8242 126.248 41.9062C126.193 41.9883 126.098 42.0293 125.961 42.0293L126.316 38.2695C126.335 38.151 126.348 38.0098 126.357 37.8457C126.367 37.6816 126.389 37.5723 126.426 37.5176C126.453 37.39 126.503 37.3262 126.576 37.3262C126.686 37.3262 126.763 37.3945 126.809 37.5312C126.863 37.6862 126.909 37.8411 126.945 37.9961C126.982 38.1419 127.014 38.2878 127.041 38.4336C127.068 38.5794 127.096 38.7161 127.123 38.8438C127.16 38.9714 127.205 39.0853 127.26 39.1855C127.469 39.5592 127.67 39.8919 127.861 40.1836C128.062 40.4753 128.281 40.7441 128.518 40.9902C128.764 41.2363 129.046 41.4596 129.365 41.6602C129.684 41.8607 130.072 42.0475 130.527 42.2207C130.81 42.321 131.079 42.3802 131.334 42.3984C131.589 42.4076 131.822 42.4121 132.031 42.4121C132.286 42.4121 132.542 42.3665 132.797 42.2754C133.052 42.1751 133.357 42.0247 133.713 41.8242C134.232 41.5143 134.647 41.1452 134.957 40.7168C135.267 40.2793 135.422 39.7324 135.422 39.0762C135.422 38.6113 135.335 38.1784 135.162 37.7773C134.998 37.3763 134.77 37.0026 134.479 36.6562C134.059 36.1914 133.658 35.8314 133.275 35.5762C132.893 35.3118 132.514 35.1022 132.141 34.9473C131.776 34.7923 131.411 34.6602 131.047 34.5508C130.682 34.4414 130.309 34.3047 129.926 34.1406C129.552 33.9766 129.169 33.7578 128.777 33.4844C128.385 33.2109 127.975 32.8281 127.547 32.3359C126.617 31.2422 126.152 29.916 126.152 28.3574ZM149.996 25.6094V41.4688C149.996 41.6784 150.11 41.8379 150.338 41.9473C150.575 42.0566 150.844 42.1387 151.145 42.1934C151.454 42.248 151.76 42.2891 152.061 42.3164C152.361 42.3346 152.58 42.3574 152.717 42.3848C152.799 42.485 152.844 42.5579 152.854 42.6035C152.872 42.64 152.881 42.6992 152.881 42.7812C152.881 42.8633 152.854 42.9316 152.799 42.9863C152.753 43.041 152.694 43.082 152.621 43.1094C152.548 43.1458 152.466 43.1732 152.375 43.1914C152.293 43.2096 152.215 43.2188 152.143 43.2188C151.96 43.2188 151.682 43.2005 151.309 43.1641C150.935 43.1276 150.538 43.0866 150.119 43.041C149.709 43.0046 149.308 42.9681 148.916 42.9316C148.533 42.8952 148.237 42.877 148.027 42.877C147.672 42.877 147.33 42.8815 147.002 42.8906C146.674 42.8997 146.332 42.9362 145.977 43C145.904 43 145.785 43.0137 145.621 43.041C145.466 43.0775 145.293 43.1139 145.102 43.1504C144.91 43.1868 144.719 43.2188 144.527 43.2461C144.345 43.2826 144.195 43.3008 144.076 43.3008C143.985 43.3008 143.917 43.2598 143.871 43.1777C143.826 43.1048 143.803 43.0456 143.803 43C143.803 42.8815 143.867 42.7858 143.994 42.7129C144.131 42.64 144.245 42.5944 144.336 42.5762C144.391 42.5488 144.491 42.5169 144.637 42.4805C144.792 42.444 144.96 42.4076 145.143 42.3711C145.325 42.3255 145.498 42.2845 145.662 42.248C145.835 42.2025 145.972 42.1615 146.072 42.125C146.218 42.0885 146.346 42.0521 146.455 42.0156C146.564 41.9701 146.656 41.9154 146.729 41.8516C146.801 41.7786 146.856 41.6875 146.893 41.5781C146.929 41.4596 146.947 41.3092 146.947 41.127V26.1562C146.947 26.0833 146.943 26.0059 146.934 25.9238C146.924 25.8327 146.906 25.7507 146.879 25.6777C146.852 25.6048 146.811 25.5456 146.756 25.5C146.701 25.4544 146.624 25.4316 146.523 25.4316H143.461C143.051 25.4316 142.7 25.4681 142.408 25.541C142.117 25.6048 141.848 25.7096 141.602 25.8555C141.301 26.0104 140.995 26.2201 140.686 26.4844C140.385 26.7487 140.152 27.0267 139.988 27.3184C139.961 27.3639 139.934 27.4277 139.906 27.5098C139.888 27.5918 139.861 27.6738 139.824 27.7559C139.788 27.8379 139.747 27.9108 139.701 27.9746C139.656 28.0384 139.601 28.0703 139.537 28.0703C139.501 28.0703 139.46 28.043 139.414 27.9883C139.368 27.9336 139.323 27.8652 139.277 27.7832C139.232 27.6921 139.191 27.5964 139.154 27.4961C139.127 27.3867 139.113 27.2819 139.113 27.1816C139.113 26.9811 139.154 26.7715 139.236 26.5527C139.327 26.334 139.437 26.1016 139.564 25.8555C139.692 25.6094 139.829 25.3451 139.975 25.0625C140.12 24.7708 140.253 24.4518 140.371 24.1055V23.8594C140.371 23.7956 140.385 23.7272 140.412 23.6543C140.458 23.5723 140.521 23.5267 140.604 23.5176C140.695 23.4993 140.79 23.4902 140.891 23.4902C140.973 23.4902 141.041 23.5176 141.096 23.5723C141.15 23.6178 141.205 23.6725 141.26 23.7363C141.314 23.8001 141.374 23.8685 141.438 23.9414C141.51 24.0052 141.597 24.0508 141.697 24.0781C141.807 24.1055 142.016 24.1419 142.326 24.1875C142.636 24.224 143.06 24.2604 143.598 24.2969C144.145 24.3333 144.81 24.3652 145.594 24.3926C146.378 24.4199 147.303 24.4336 148.369 24.4336C148.624 24.4336 148.916 24.429 149.244 24.4199C149.572 24.4017 149.91 24.3835 150.256 24.3652C150.611 24.347 150.962 24.3333 151.309 24.3242C151.655 24.306 151.974 24.2969 152.266 24.2969C152.493 24.2969 152.699 24.306 152.881 24.3242C153.063 24.3424 153.259 24.3698 153.469 24.4062C153.578 24.4245 153.697 24.4427 153.824 24.4609C153.952 24.4792 154.079 24.4974 154.207 24.5156C154.335 24.5247 154.453 24.5339 154.562 24.543C154.672 24.5521 154.758 24.5566 154.822 24.5566C154.995 24.5566 155.082 24.4609 155.082 24.2695C155.082 24.1693 155.114 24.0736 155.178 23.9824C155.26 23.8822 155.369 23.7637 155.506 23.627C155.643 23.4902 155.761 23.4219 155.861 23.4219C155.934 23.4219 156.012 23.472 156.094 23.5723C156.185 23.6725 156.271 23.7956 156.354 23.9414C156.445 24.0781 156.527 24.2194 156.6 24.3652C156.682 24.502 156.75 24.6113 156.805 24.6934C156.868 24.8392 156.914 25.0169 156.941 25.2266C156.969 25.4271 157.001 25.582 157.037 25.6914C157.074 25.7734 157.151 25.9056 157.27 26.0879C157.397 26.2702 157.525 26.4661 157.652 26.6758C157.78 26.8763 157.894 27.0723 157.994 27.2637C158.104 27.4551 158.158 27.6055 158.158 27.7148C158.158 27.9518 158.053 28.0703 157.844 28.0703C157.716 28.0703 157.561 27.9974 157.379 27.8516C157.206 27.7057 157.019 27.5371 156.818 27.3457C156.627 27.1543 156.431 26.9629 156.23 26.7715C156.03 26.571 155.843 26.416 155.67 26.3066C155.551 26.2337 155.387 26.1517 155.178 26.0605C154.977 25.9694 154.763 25.8783 154.535 25.7871C154.307 25.696 154.084 25.6185 153.865 25.5547C153.646 25.4909 153.46 25.4499 153.305 25.4316C153.059 25.3861 152.803 25.3633 152.539 25.3633C152.275 25.3542 152.02 25.3496 151.773 25.3496H150.994C150.967 25.3496 150.898 25.3542 150.789 25.3633C150.689 25.3724 150.579 25.3906 150.461 25.418C150.342 25.4362 150.233 25.4635 150.133 25.5C150.042 25.5273 149.996 25.5638 149.996 25.6094ZM169.109 36.7383C169.109 36.6107 169.036 36.5469 168.891 36.5469C168.335 36.6198 167.77 36.6471 167.195 36.6289C166.63 36.6016 166.061 36.5742 165.486 36.5469C165.404 36.5469 165.331 36.515 165.268 36.4512C165.213 36.3874 165.186 36.2826 165.186 36.1367C165.186 35.8906 165.263 35.7676 165.418 35.7676C166.001 35.7676 166.585 35.7585 167.168 35.7402C167.751 35.722 168.335 35.7311 168.918 35.7676C169.046 35.7676 169.109 35.7038 169.109 35.5762C169.128 34.3001 169.128 33.0378 169.109 31.7891C169.109 31.6159 169.242 31.5293 169.506 31.5293C169.761 31.5293 169.889 31.6159 169.889 31.7891C169.889 32.418 169.87 33.0469 169.834 33.6758C169.807 34.3047 169.825 34.9473 169.889 35.6035C169.889 35.7129 169.93 35.7676 170.012 35.7676C170.613 35.7311 171.206 35.7129 171.789 35.7129C172.382 35.7038 172.979 35.722 173.58 35.7676C173.68 35.7676 173.758 35.7904 173.812 35.8359C173.876 35.8815 173.908 35.9772 173.908 36.123C173.908 36.2051 173.867 36.2962 173.785 36.3965C173.703 36.4967 173.635 36.5469 173.58 36.5469C172.988 36.5469 172.4 36.5286 171.816 36.4922C171.233 36.4466 170.654 36.4648 170.08 36.5469C169.998 36.5469 169.943 36.556 169.916 36.5742C169.898 36.5833 169.889 36.6289 169.889 36.7109C169.861 37.4857 169.848 38.1829 169.848 38.8027C169.857 39.4134 169.87 40.0241 169.889 40.6348C169.889 40.8079 169.761 40.8945 169.506 40.8945C169.242 40.8945 169.109 40.8079 169.109 40.6348C169.109 39.9694 169.118 39.3086 169.137 38.6523C169.164 37.987 169.155 37.349 169.109 36.7383Z" fill="url(#paint2_linear_11_4)"/>
<defs>
<radialGradient id="paint0_radial_11_4" cx="0" cy="0" r="1" gradientUnits="userSpaceOnUse" gradientTransform="translate(25 4) rotate(-151.521) scale(87.0316 69.6253)">
<stop stop-color="#FFCF29"/>
<stop offset="1" stop-color="#967D26" stop-opacity="0"/>
</radialGradient>
<linearGradient id="paint1_linear_11_4" x1="127" y1="50.0001" x2="265.5" y2="48.0001" gradientUnits="userSpaceOnUse">
<stop stop-color="#FFCF29"/>
<stop offset="1" stop-color="#BB9F3D" stop-opacity="0"/>
</linearGradient>
<linearGradient id="paint2_linear_11_4" x1="185" y1="68.5" x2="-7" y2="-8.50001" gradientUnits="userSpaceOnUse">
<stop offset="0.396438" stop-color="white"/>
<stop offset="0.9999" stop-color="#EAEAEA" stop-opacity="0"/>
<stop offset="1" stop-color="white" stop-opacity="0"/>
</linearGradient>
</defs>
</svg>
